<svg xmlns="http://www.w3.org/2000/svg" width="50" height="50" viewBox="0 0 50 50"><path fill="#FFF" d="M9.182 7.658a1.665 1.665 0 1 0-2.354 2.356l2.354 2.354a1.664 1.664 0 1 0 2.355-2.354L9.182 7.658m31.636 0l-2.354 2.356a1.665 1.665 0 0 0 2.354 2.354l2.355-2.354c.65-.651.65-1.705 0-2.356a1.668 1.668 0 0 0-2.355 0M5.02 20.836H1.69a1.666 1.666 0 1 0 0 3.331h3.33c.919 0 1.666-.746 1.666-1.666a1.667 1.667 0 0 0-1.666-1.665m43.291 0h-3.33c-.92 0-1.664.746-1.664 1.665 0 .92.744 1.666 1.664 1.666h3.33a1.666 1.666 0 0 0 0-3.331M23.335 1.688v3.331a1.665 1.665 0 1 0 3.331 0V1.688a1.666 1.666 0 0 0-3.331 0m-9.991 23.311c0-6.438 5.219-11.654 11.655-11.654 6.438 0 11.657 5.217 11.657 11.654 0 6.439-5.219 11.656-11.657 11.656-6.436 0-11.655-5.217-11.655-11.656m-3.329 0c0 8.277 6.708 14.986 14.984 14.986 8.278 0 14.987-6.709 14.987-14.986 0-8.275-6.709-14.984-14.987-14.984-8.276 0-14.984 6.709-14.984 14.984M21.67 48.31c0 .92.746 1.666 1.666 1.666h3.331a1.664 1.664 0 0 0 0-3.328h-3.331a1.663 1.663 0 0 0-1.666 1.662m-3.33-4.995c0 .92.746 1.666 1.665 1.666h9.991a1.664 1.664 0 0 0 0-3.33h-9.991c-.92 0-1.665.743-1.665 1.664"/></svg>